<?xml version="1.0" encoding="UTF-8" standalone="no"?>
<svg width="1080px" height="390px" viewBox="0 0 1080 390" version="1.1" xmlns="http://www.w3.org/2000/svg" xmlns:xlink="http://www.w3.org/1999/xlink">
    <!-- Generator: Sketch 47 (45396) - http://www.bohemiancoding.com/sketch -->
    <title>Clouds</title>
    <desc>Created with Sketch.</desc>
    <defs></defs>
    <g id="Welcome" stroke="none" stroke-width="1" fill="none" fill-rule="evenodd">
        <g id="Desktop" transform="translate(-420.000000, -386.000000)" fill="#7DCCC7">
            <g id="Clouds" transform="translate(420.000000, 386.000000)">
                <path d="M189.496154,390 L0,390 L0,75.6655491 C17.5241062,70.3142646 36.1286292,67.4351585 55.40625,67.4351585 C159.943398,67.4351585 244.6875,152.097854 244.6875,256.534582 C244.6875,308.626883 223.603644,355.799516 189.496154,390 Z" id="Combined-Shape"></path>
                <path d="M358.896376,390 L179.416124,390 C153.812605,366.055758 137.8125,331.987536 137.8125,294.185879 C137.8125,221.716411 196.6171,162.9683 269.15625,162.9683 C341.6954,162.9683 400.5,221.716411 400.5,294.185879 C400.5,331.987536 384.499895,366.055758 358.896376,390 Z" id="Combined-Shape"></path>
                <path d="M800.043115,390 L530.269385,390 C527.441126,378.949895 525.9375,367.370115 525.9375,355.439481 C525.9375,278.624949 588.267857,216.354467 665.15625,216.354467 C742.044643,216.354467 804.375,278.624949 804.375,355.439481 C804.375,367.370115 802.871374,378.949895 800.043115,390 Z" id="Combined-Shape"></path>
                <path d="M555.879037,390 L310.370963,390 C307.883518,380.108613 306.5625,369.754538 306.5625,359.092219 C306.5625,289.260826 363.226461,232.651297 433.125,232.651297 C503.023539,232.651297 559.6875,289.260826 559.6875,359.092219 C559.6875,369.754538 558.366482,380.108613 555.879037,390 Z" id="Combined-Shape"></path>
                <path d="M1080,0.286210495 L1080,390 L952.364175,390 C911.613057,348.315963 886.5,291.306198 886.5,228.436599 C886.5,113.641642 970.226671,18.3833109 1080,0.286210495 Z" id="Combined-Shape"></path>
                <path d="M956.80016,390 L786.94984,390 C750.808313,363.746384 727.3125,321.170623 727.3125,273.112392 C727.3125,193.349423 792.035336,128.688761 871.875,128.688761 C951.714664,128.688761 1016.4375,193.349423 1016.4375,273.112392 C1016.4375,321.170623 992.941687,363.746384 956.80016,390 Z" id="Combined-Shape"></path>
            </g>
        </g>
    </g>
</svg>